<?xml version="1.0" encoding="utf-8"?>
<!-- Generator: Adobe Illustrator 24.2.0, SVG Export Plug-In . SVG Version: 6.00 Build 0)  -->
<svg version="1.1" id="Layer_1" xmlns="http://www.w3.org/2000/svg" xmlns:xlink="http://www.w3.org/1999/xlink" x="0px" y="0px"
	 viewBox="0 0 1000 1000" enable-background="new 0 0 1000 1000" xml:space="preserve">
<g>
	<g>
		<path fill="#006CB5" d="M71.42,50.58c1.83-0.39,3.71-0.54,5.58-0.58c281.99,0,563.97,0,845.96,0
			c14.38-0.37,27.35,12.54,27.03,26.93c0.02,282.02,0.01,564.04,0,846.05c0.18,11.36-7.73,22.14-18.48,25.64
			c-5.29,1.89-10.98,1.29-16.48,1.38c-279.35,0-558.7,0.01-838.04-0.01c-14.39,0.35-27.32-12.6-26.98-26.97
			C50,641.01,50,359.01,50,77C49.78,64.6,59.29,52.99,71.42,50.58z M86.51,63.69C73.67,65.05,63.1,77.06,63.5,90
			c0.01,271.33,0,542.67,0,814c0.05,4.02-0.28,8.1,0.65,12.06c2.06,9.37,9.68,17.23,18.98,19.6c3.88,1.06,7.94,0.82,11.92,0.84
			c271.66,0,543.33,0.01,814.99,0c14.17,0.48,26.97-12.33,26.46-26.51c0-271.65,0-543.31,0-814.97c-0.02-4,0.22-8.08-0.86-11.98
			c-2.34-8.98-9.77-16.4-18.76-18.7c-3.85-1.07-7.89-0.82-11.83-0.84c-271.69,0-543.38-0.01-815.07,0
			C88.82,63.51,87.66,63.57,86.51,63.69z"/>
	</g>
	<g>
		<path fill="#006CB5" d="M458.86,330.32c3.12-4.54,8.55-7.33,14.1-6.75c10.45,0.91,19.28,7.45,27.04,14.02
			c7.76-6.57,16.59-13.12,27.06-14.02c6.18-0.64,12.37,2.92,14.99,8.53c4.55,9.43,3.27,20.34,1.56,30.3
			c1.31,1.33,3.59,1.48,5.3,2.28c-1.55,1.75-2.56,3.89-3.32,6.08c-1.23-0.47-2.45-0.93-3.66-1.39c-1.79,6.32-4.11,12.48-6.61,18.55
			c2.59,5.99,4.8,12.14,6.61,18.42c6.9-2.59,14.14-5.74,18.71-11.78c1.76-2.2,2.29-5,2.5-7.73c2.91-1.22,5.5-3.18,7.24-5.84
			c2.68,5.34,1.83,11.96-1.89,16.59c-6.18,7.93-15.75,12.11-24.97,15.41c1.82,9.95,3.04,20.8-1.3,30.29
			c-2.56,5.78-8.87,9.52-15.18,8.85c-10.46-0.91-19.3-7.45-27.04-14.03c-1.48,1.23-2.95,2.46-4.41,3.7
			c-0.87-2.51-2.34-4.76-4.34-6.51l0.79,0.49c1.02-0.77,2.03-1.56,3.04-2.34c-4.63-4.62-8.58-9.83-12.76-14.82
			c-6.42-1.26-12.97-1.96-19.3-3.71c-1.2,7.31-2.12,15.2,0.89,22.2c1.02,2.58,3.17,4.39,5.4,5.92c-0.39,3.13,0.01,6.33,1.42,9.19
			c-5.86-0.33-11.1-4.24-13.28-9.65c-3.93-9.36-2.77-19.87-0.97-29.58c-9.42-3.38-19.3-7.68-25.39-16
			c-3.95-5.19-4.07-12.77-0.17-18.02c6.04-8.46,16.01-12.88,25.54-16.2c-0.32-1.9-0.63-3.79-0.96-5.68
			c2.29,0.38,4.63,0.29,6.91-0.18c0.2,1.29,0.41,2.58,0.63,3.89c5.88-1.52,11.86-2.55,17.88-3.34c1.54,0.03,2.3-1.42,3.19-2.42
			c3.34-4.51,7.07-8.71,10.96-12.75c-5.57-4.57-11.72-9.1-19.01-10.25c-2.96-0.55-5.9,0.3-8.49,1.7
			C465.08,331.73,462.04,330.53,458.86,330.32z M504.94,342.34c4.72,4.57,8.62,9.9,12.88,14.86c6.37,1.07,12.82,1.82,19.05,3.63
			c1.43-7.2,2.13-15.01-0.65-21.97c-1.72-4.48-6.45-7.53-11.26-6.92C517.25,332.73,510.71,337.51,504.94,342.34z M491.26,356.6
			c5.82-0.33,11.65-0.33,17.47,0.01c-2.87-3.28-5.65-6.63-8.73-9.7C496.91,349.98,494.13,353.33,491.26,356.6z M485.97,363.81
			c-5.25,7.65-10.02,15.66-13.84,24.13c4,8.37,8.59,16.48,13.96,24.06c9.25,0.78,18.57,0.79,27.82,0c5.36-7.6,9.99-15.7,13.96-24.11
			c-3.88-8.44-8.59-16.49-13.88-24.12C504.68,362.88,495.27,362.84,485.97,363.81z M464.53,367.42c1.18,4.19,2.63,8.29,4.06,12.4
			c2.56-5.22,5.5-10.25,8.69-15.1C473,365.47,468.71,366.24,464.53,367.42z M522.73,364.72c3.18,4.86,6.12,9.88,8.68,15.1
			c1.42-4.13,2.93-8.23,4.03-12.46C531.24,366.29,526.99,365.45,522.73,364.72z M439.28,381.25c-2.85,3.65-3.02,9.04-0.27,12.8
			c4.49,6.38,11.99,9.63,19.07,12.29c1.79-6.28,4-12.43,6.6-18.42c-2.5-6.08-4.85-12.22-6.6-18.56
			C451.13,371.95,443.85,375.14,439.28,381.25z M468.58,395.96c-1.46,4.08-2.9,8.17-4.03,12.36c4.17,1.09,8.41,1.93,12.67,2.65
			C474.1,406.1,471.19,401.11,468.58,395.96z M531.42,395.96c-2.61,5.15-5.53,10.14-8.64,15c4.26-0.71,8.49-1.55,12.67-2.64
			C534.31,404.13,532.88,400.03,531.42,395.96z M517.69,418.57c-4.12,5.07-8.2,10.19-12.74,14.91c5.86,4.67,12.31,9.53,20.02,10.29
			c4.73,0.57,9.42-2.36,11.17-6.76c2.94-6.98,2.05-14.83,0.83-22.1C530.64,416.64,524.12,417.43,517.69,418.57z M491.35,419.13
			c2.78,3.3,5.58,6.59,8.65,9.64c3.06-3.05,5.87-6.33,8.65-9.64C502.88,419.41,497.11,419.41,491.35,419.13z"/>
	</g>
	<g>
		<path fill="#006CB5" d="M241.37,678.54c5.53-1.47,12.45-0.89,16.35,3.76c3.05,3.49,2.65,8.4,2.78,12.73
			c-0.07,6.99,0.3,14.02-0.38,21c-0.55,4.96-4.9,8.81-9.71,9.57c-5.38,0.97-11.94,0.05-15.32-4.7c-2.59-3.41-2.17-7.92-2.33-11.95
			c0.02-6.68-0.21-13.37,0.24-20.04C233.12,684.07,236.73,679.74,241.37,678.54z M245.31,686.13c-1.28,8.85-0.23,17.96-0.57,26.91
			c-0.13,2.04-0.08,6.56,3.09,4.7c1.23-3.43,0.48-7.24,0.69-10.81c-0.07-6.27,0.14-12.54-0.1-18.8
			C248.84,686.19,246.86,684.73,245.31,686.13z"/>
	</g>
	<path fill="#006CB5" d="M456.75,685.5c0.83-4.76,5.8-7.25,10.21-7.55c4.88-0.4,10.6,0.26,13.99,4.2c1.97,3.13,1.51,7.05,1.68,10.59
		c-3.71,0.01-7.42,0.02-11.13-0.02c-0.43-2.21,1.31-7.48-2.49-7.05c-2.27,1.46-1.67,4.95-0.83,7.11
		c4.35,4.59,11.76,6.28,14.35,12.52c1.39,4.87,1.64,10.35-0.09,15.16c-2.26,3.93-7.19,5.3-11.44,5.46
		c-4.67,0.16-10.06-1.11-12.77-5.26c-1.94-3.76-1.54-8.16-1.64-12.24c3.7-0.02,7.4-0.01,11.11-0.02c0.08,2.84-0.22,5.73,0.31,8.55
		c0.36,1.76,3.38,1.55,3.81-0.11c0.7-2.37,0.49-5.07-0.39-7.36c-3.56-3.83-8.7-5.76-12.35-9.49
		C455.73,696,455.95,690.33,456.75,685.5z"/>
	<g>
		<path fill="#006CB5" d="M578.37,678.46c5.49-1.35,12.34-0.73,16.13,3.94c3.18,3.78,2.51,9,2.71,13.58
			c-0.1,6.85,0.33,13.75-0.47,20.57c-2.37,12.48-23.81,12.69-26.73,0.48c-1.04-8.99-0.52-18.11-0.4-27.14
			C569.45,684.6,573.2,679.63,578.37,678.46z M582.16,686.07c-1.07,1.76-0.57,3.99-0.74,5.97c0.15,8.18-0.25,16.37,0.22,24.53
			c-0.22,1.95,3.05,2.16,3.22,0.39c0.74-5.94,0.18-11.97,0.36-17.94c-0.2-4.33,0.47-8.76-0.53-13.01c-0.43-0.1-1.29-0.31-1.72-0.42
			L582.16,686.07z"/>
	</g>
	<path fill="#006CB5" d="M746.34,684.85c1.09-4.25,5.58-6.46,9.64-6.86c4.9-0.49,10.58,0.11,14.17,3.85
		c2.27,3.12,1.72,7.26,1.9,10.91c-3.71,0-7.41,0-11.1,0c-0.43-2.41,1.16-6.42-1.95-7.31c-2.97,1.13-2.43,5.44-1.12,7.69
		c4.19,3.9,10.25,5.78,13.45,10.8c2.16,4.52,1.99,9.86,1.17,14.7c-0.87,4.32-5.48,6.39-9.41,7.05c-5.32,0.77-11.74-0.06-15.18-4.64
		c-2.25-3.79-1.79-8.42-1.87-12.64c3.69,0.01,7.39,0,11.09,0.01c0.04,2.75-0.17,5.54,0.23,8.29c0.23,2.15,3.75,1.82,4.01-0.18
		c0.48-2.36,0.39-4.96-0.59-7.17c-3.72-3.83-8.96-5.78-12.57-9.71C745.08,695.44,745.36,689.72,746.34,684.85z"/>
	<path fill="#006CB5" d="M140.02,678.78c4,0,7.99-0.01,11.99,0.01c0.01,5.48-0.01,10.98,0.01,16.47c0.88,0,2.65,0.01,3.54,0.01
		c0.04-5.49-0.01-10.99,0.02-16.48c3.99-0.02,7.98-0.01,11.97-0.01c0.06,15.4-0.01,30.8,0.03,46.2c-4,0.03-8,0.02-12,0.02
		c-0.02-6.49,0.02-12.97-0.03-19.45c-0.88,0-2.65,0.01-3.53,0.02c-0.01,6.47,0,12.95-0.01,19.43c-4,0-8,0-11.99,0
		C140.02,709.59,140.01,694.19,140.02,678.78z"/>
	<g>
		<path fill="#006CB5" d="M169.47,725c2.03-15.41,4.04-30.82,6.11-46.22c5.78,0,11.56-0.01,17.34,0
			c2.29,15.41,4.57,30.81,6.84,46.22c-4.09-0.01-8.18,0.01-12.27-0.02c-0.19-2.77-0.41-5.52-0.62-8.27
			c-1.43-0.01-2.85-0.01-4.27-0.01c-0.25,2.76-0.51,5.52-0.73,8.29C177.74,725,173.6,725,169.47,725z M182.44,708.51
			c1.02,0,3.06,0,4.08,0c-0.74-6.37-1.14-12.78-1.88-19.15C183.89,695.74,183.01,702.11,182.44,708.51z"/>
	</g>
	<path fill="#006CB5" d="M201.67,678.79c3.35-0.02,6.71-0.02,10.06,0c2.24,6.88,4.41,13.79,6.71,20.65
		c0.03-6.89-0.01-13.77,0.02-20.65c3.33-0.02,6.66-0.02,9.99,0c0.01,15.4,0,30.8,0,46.21c-3.52,0-7.03,0-10.55,0
		c-2.09-6.89-4.02-13.83-6.2-20.7c-0.08,6.9,0,13.8-0.04,20.7c-3.33,0-6.66,0-9.99-0.01C201.66,709.59,201.66,694.19,201.67,678.79z
		"/>
	<path fill="#006CB5" d="M264.76,678.79c4-0.02,7.99-0.02,11.99,0c0.01,15.4-0.01,30.8,0.01,46.2c-4,0.01-8,0.01-12,0
		C264.75,709.59,264.75,694.19,264.76,678.79z"/>
	<path fill="#006CB5" d="M291.53,678.79c3.99-0.02,7.98-0.01,11.98-0.02c0.06,11.75,0,23.5,0.02,35.25c0.05,1.83-0.2,4.69,2.52,4.16
		c1.03-1.52,0.78-3.43,0.88-5.16c-0.01-11.41-0.02-22.82,0-34.23c3.99-0.02,7.99-0.02,11.99,0c-0.07,12.07,0.16,24.15-0.13,36.22
		c0.05,5.24-4.26,9.85-9.38,10.59c-5.41,0.93-11.89,0.07-15.59-4.39c-2.56-3.13-2.14-7.39-2.27-11.16
		C291.5,699.63,291.53,689.21,291.53,678.79z"/>
	<path fill="#006CB5" d="M323.4,724.98c0.03-15.4-0.03-30.8,0.03-46.2c3.33,0,6.67,0,10.01-0.01c2.3,6.82,4.37,13.71,6.71,20.52
		c0.09-6.84,0.02-13.67,0.05-20.5c3.33-0.02,6.66-0.02,9.99,0c0.01,15.4,0,30.8,0,46.2c-3.57-0.05-7.15,0.17-10.71-0.15
		c-1.83-6.96-4.02-13.82-6.05-20.72c-0.04,6.96,0,13.91-0.02,20.87C330.07,725,326.73,725,323.4,724.98z"/>
	<path fill="#006CB5" d="M354.82,678.79c3.99-0.02,7.99-0.02,11.99,0c0.01,15.4-0.01,30.8,0,46.2c-4,0.01-8,0.01-12,0
		C354.81,709.59,354.8,694.19,354.82,678.79z"/>
	<path fill="#006CB5" d="M368.81,678.79c4.22-0.02,8.43-0.01,12.64-0.01c1.19,10.54,2.43,21.09,3,31.69
		c1.13-10.54,1.86-21.13,2.97-31.68c4.22-0.02,8.43-0.02,12.65,0c-2.01,15.4-4.07,30.8-6.12,46.21c-6.06,0-12.12-0.01-18.17,0
		C373.44,709.6,371.12,694.19,368.81,678.79z"/>
	<path fill="#006CB5" d="M401.89,678.79c6.65-0.01,13.29-0.02,19.94,0c0,3.07,0,6.14,0,9.21c-2.65,0-5.3,0.02-7.94,0.02
		c-0.01,2.91-0.01,5.82,0,8.74c2.47-0.02,4.96,0.01,7.44,0.01c0,2.93,0.01,5.86,0,8.79c-2.51-0.03-5.02-0.08-7.51,0.14
		c0.11,3.34,0.05,6.69,0.07,10.05c2.92-0.01,5.84,0,8.77,0c0.01,3.08,0.01,6.16,0,9.25c-6.92-0.01-13.85,0.01-20.77-0.01
		C401.89,709.59,401.88,694.19,401.89,678.79z"/>
	<g>
		<path fill="#006CB5" d="M425.99,678.79c6.36,0.07,12.75-0.29,19.08,0.49c3.49,0.31,6.39,3.15,7.11,6.53
			c0.8,3.72,0.85,7.68-0.06,11.39c-0.54,2.42-3.13,3.16-5.21,3.78c2.54,0.85,5.22,2.52,5.61,5.41c0.51,6.18,0.14,12.4,0.26,18.6
			c-3.71,0.01-7.42,0.01-11.12,0c-0.13-6.23,0.26-12.47-0.21-18.68c0.04-1.88-2.02-2.03-3.37-2.33c-0.21,7-0.04,14.01-0.1,21.02
			c-4,0-7.99,0-11.99,0C425.98,709.59,425.98,694.19,425.99,678.79z M438.02,686.55c-0.06,3.53-0.06,7.05,0.01,10.58
			c4.69,0.41,3.67-5.05,3.54-8.06C441.65,687.07,439.51,686.77,438.02,686.55z"/>
	</g>
	<path fill="#006CB5" d="M487.21,678.79c3.99-0.02,7.99-0.02,11.99,0c0.01,15.4,0.01,30.8,0,46.21c-4,0-8,0-12-0.01
		C487.21,709.59,487.2,694.19,487.21,678.79z"/>
	<path fill="#006CB5" d="M501.87,678.79c8.74-0.01,17.48-0.01,26.22,0c0.01,3.07,0.01,6.14,0,9.22c-2.37-0.01-4.74,0.01-7.1,0.01
		c-0.02,12.32-0.01,24.65-0.01,36.98c-4,0-8,0-11.99,0c-0.02-12.33,0-24.66-0.01-36.98c-2.38,0-4.75-0.02-7.11-0.01
		C501.85,684.93,501.85,681.86,501.87,678.79z"/>
	<path fill="#006CB5" d="M529.39,678.79c3.65-0.02,7.3-0.01,10.96-0.01c1.16,5.96,2.19,11.95,3,17.97
		c0.92-6.02,2.05-12.01,3.33-17.97c3.65,0,7.31-0.01,10.97,0c-2.81,9.75-5.86,19.43-8.56,29.2c-0.39,5.65-0.04,11.34-0.16,17.02
		c-3.7,0-7.41,0-11.11-0.01c-0.46-7.18,1.17-14.66-1.38-21.56C534.08,695.21,531.72,687,529.39,678.79z"/>
	<path fill="#006CB5" d="M601.43,724.97c0.13-15.43-0.17-30.86,0.15-46.27c6.73,0.18,13.47,0.02,20.2,0.09c0,3.07,0,6.14,0,9.22
		c-2.81-0.01-5.62-0.07-8.42,0.14c0.12,2.86,0.1,5.73,0.08,8.6c2.48,0.01,4.95,0.02,7.44,0.01c0.02,2.93,0.02,5.87,0,8.81
		c-2.47-0.02-4.95-0.01-7.42-0.01c-0.03,6.48,0,12.95-0.01,19.44C609.44,724.99,605.43,725.02,601.43,724.97z"/>
	<path fill="#006CB5" d="M634.77,678.79c3.99-0.02,7.99-0.02,11.99,0c0,15.4-0.01,30.8,0,46.2c-4,0.01-8,0.01-12,0
		C634.76,709.59,634.75,694.19,634.77,678.79z"/>
	<path fill="#006CB5" d="M651.46,724.98c0.04-15.4-0.03-30.8,0.04-46.2c3.32,0,6.65,0.01,9.98-0.02c2.34,6.81,4.37,13.72,6.75,20.52
		c0.06-6.83,0.01-13.66,0.03-20.49c3.33-0.02,6.66-0.02,10,0c0.01,15.4,0,30.8,0,46.2c-3.57-0.04-7.14,0.15-10.7-0.13
		c-1.87-6.94-3.99-13.8-6.07-20.67c-0.04,6.93,0,13.87-0.02,20.81C658.13,725,654.79,725,651.46,724.98z"/>
	<g>
		<path fill="#006CB5" d="M682.88,678.79c6.92,0.15,13.94-0.48,20.78,0.82c3.9,0.74,6.83,4.38,6.79,8.35
			c0.41,8.34,0.14,16.7,0.19,25.05c-0.17,2.99,0.14,6.37-1.72,8.94c-1.85,2.36-5.06,2.85-7.86,2.97
			c-6.06,0.17-12.12,0.04-18.18,0.07C682.87,709.59,682.87,694.19,682.88,678.79z M694.9,686.56c-0.03,10.22-0.03,20.44,0,30.67
			c1.52-0.2,3.68-0.59,3.53-2.61c0.43-8.49,0.25-17.03,0.11-25.53C698.73,686.98,696.44,686.69,694.9,686.56z"/>
	</g>
	<path fill="#006CB5" d="M714.77,678.79c3.99-0.02,7.99-0.02,12,0c0,11.73-0.01,23.46,0,35.19c0.26,1.33-0.45,3.82,1.39,4.2
		c2.32,0.14,1.79-2.64,1.98-4.13c0.04-11.76,0-23.51,0.02-35.26c3.99-0.02,7.99-0.02,11.99,0c-0.07,12.07,0.17,24.15-0.13,36.22
		c0.05,4.89-3.71,9.31-8.42,10.37c-4.9,1.14-10.47,0.66-14.65-2.33c-2.88-2.04-4.16-5.64-4.07-9.06
		C714.63,702.26,714.81,690.52,714.77,678.79z"/>
	<path fill="#006CB5" d="M774.59,678.79c8.74-0.01,17.48-0.01,26.22,0c0,3.06,0,6.14,0,9.21c-2.38,0-4.75,0.02-7.11,0.02
		c-0.01,12.32-0.01,24.64,0,36.97c-4,0.02-8,0.01-12,0.01c0-12.33-0.01-24.65,0.01-36.97c-2.38-0.01-4.76-0.04-7.12-0.02
		C774.57,684.93,774.57,681.86,774.59,678.79z"/>
	<g>
		<path fill="#006CB5" d="M803.36,724.98c0.08-15.41-0.11-30.83,0.1-46.25c6.51,0.22,13.07-0.3,19.54,0.64
			c3.36,0.49,5.97,3.39,6.63,6.66c0.72,3.77,0.82,7.79-0.24,11.52c-0.63,2.09-2.95,2.58-4.62,3.56c2.53,0.94,5.09,2.88,5.21,5.81
			c0.37,6.02,0.11,12.05,0.18,18.07c-3.71,0.01-7.41,0.01-11.11,0.01c-0.15-6.34,0.32-12.71-0.27-19.02
			c-0.1-1.74-2.15-1.61-3.36-1.97c-0.1,7-0.02,13.99-0.05,20.99C811.37,725,807.36,725.01,803.36,724.98z M815.41,686.54
			c-0.06,3.52-0.05,7.05-0.01,10.58c1.04-0.42,2.82-0.04,3.27-1.35c0.55-2.5,0.6-5.19,0.05-7.68
			C818.26,686.7,816.53,686.92,815.41,686.54z"/>
	</g>
	<path fill="#006CB5" d="M831.9,678.79c3.65-0.02,7.3-0.02,10.96,0c1.14,5.94,2.19,11.91,2.98,17.92c0.97-6,2.06-11.98,3.34-17.92
		c3.65-0.02,7.31-0.02,10.97,0c-2.37,8.08-4.78,16.15-7.16,24.23c-2.77,7.01-1.1,14.65-1.55,21.98c-3.72,0-7.42,0.01-11.12-0.02
		c-0.09-5.64,0.2-11.3-0.13-16.93C837.58,698.26,834.61,688.56,831.9,678.79z"/>
</g>
<g>
	<g>
		<path fill="#FFDB5C" d="M86.51,63.69c1.15-0.12,2.31-0.18,3.47-0.19c271.69-0.01,543.38,0,815.07,0
			c3.94,0.02,7.98-0.23,11.83,0.84c8.99,2.3,16.42,9.72,18.76,18.7c1.08,3.9,0.84,7.98,0.86,11.98c0,271.66,0,543.32,0,814.97
			c0.51,14.18-12.29,26.99-26.46,26.51c-271.66,0.01-543.33,0-814.99,0c-3.98-0.02-8.04,0.22-11.92-0.84
			c-9.3-2.37-16.92-10.23-18.98-19.6c-0.93-3.96-0.6-8.04-0.65-12.06c0-271.33,0.01-542.67,0-814
			C63.1,77.06,73.67,65.05,86.51,63.69z M454.89,101.23c-59.69,9.19-116.33,37.7-159.01,80.44c41.6,41.4,83.03,82.98,124.53,124.48
			c20.66-20,48.95-31.79,77.71-32.18c0-58.74,0.02-117.49,0-176.23C483.65,97.86,469.18,98.98,454.89,101.23z M501.88,176.51
			c-0.02,6.24-0.02,12.48,0,18.73c49.39,0.24,98.21,20.53,133.34,55.23c4.43-4.41,8.85-8.83,13.26-13.26
			C609.9,199.02,556.19,176.66,501.88,176.51z M244.72,274.69c-15.67,35.06-23.86,73.4-24.08,111.79
			c51.24,0.02,102.48,0,153.72,0.01c0.36-31.7,13.36-62.94,35.47-85.64c-36.23-36.23-72.45-72.48-108.7-108.69
			C277.59,216,258.36,244.09,244.72,274.69z M629.94,261.09c32.6,33.05,51.67,78.94,51.93,125.39c13.75,0.02,27.49,0.01,41.23,0
			c-0.18-24.2-4.3-48.38-12.24-71.25c-10.78-31.16-28.64-59.81-51.77-83.3C649.36,241.64,639.64,251.36,629.94,261.09z
			 M458.86,330.32c-6.61-0.16-12.85,5-13.67,11.59c-1.18,6.77,3.67,13.67,10.31,15.18c0.33,1.89,0.64,3.78,0.96,5.68
			c-9.53,3.32-19.5,7.74-25.54,16.2c-3.9,5.25-3.78,12.83,0.17,18.02c6.09,8.32,15.97,12.62,25.39,16
			c-1.8,9.71-2.96,20.22,0.97,29.58c2.18,5.41,7.42,9.32,13.28,9.65c3.08,5.53,10.13,8.48,16.17,6.34c6.79-2.09,10.87-10,8.69-16.76
			c1.46-1.24,2.93-2.47,4.41-3.7c7.74,6.58,16.58,13.12,27.04,14.03c6.31,0.67,12.62-3.07,15.18-8.85
			c4.34-9.49,3.12-20.34,1.3-30.29c9.22-3.3,18.79-7.48,24.97-15.41c3.72-4.63,4.57-11.25,1.89-16.59
			c3.36-5.53,2.18-13.34-2.91-17.41c-5.23-4.61-13.87-4-18.56,1.1c-1.71-0.8-3.99-0.95-5.3-2.28c1.71-9.96,2.99-20.87-1.56-30.3
			c-2.62-5.61-8.81-9.17-14.99-8.53c-10.47,0.9-19.3,7.45-27.06,14.02c-7.76-6.57-16.59-13.11-27.04-14.02
			C467.41,322.99,461.98,325.78,458.86,330.32z M231.89,390.22c0.22,36.71,8.03,73.37,22.97,106.91
			c13.08,29.48,31.59,56.52,54.23,79.49c30.94-30.94,61.87-61.87,92.8-92.81c-24.24-24.75-38.43-58.93-38.77-93.57
			C319.38,390.23,275.64,390.21,231.89,390.22z M670.59,390.27c-0.24,43.43-18.06,86.43-48.59,117.31
			c14.9,15.17,30.04,30.1,45.05,45.16c15.39-15.64,28.59-33.43,39.05-52.71c18.28-33.54,28.03-71.63,28.25-109.81
			C713.1,390.27,691.84,390.17,670.59,390.27z M319.73,571.23c46.74,46.75,112.3,73.84,178.39,73.98
			c0.01-36.24,0.03-72.49-0.02-108.73c-37.57-0.31-74.69-15.72-101.47-42.04C370.94,519.98,345.41,545.68,319.73,571.23z
			 M501.88,547.74c-0.01,28.74-0.01,57.48-0.01,86.23c27.98-0.2,55.94-5.17,82.23-14.77c32.97-11.98,63.23-31.22,88.24-55.81
			c-20.3-20.37-40.64-40.69-60.99-61C582.45,530.8,542.42,547.43,501.88,547.74z M241.37,678.54c-4.64,1.2-8.25,5.53-8.37,10.37
			c-0.45,6.67-0.22,13.36-0.24,20.04c0.16,4.03-0.26,8.54,2.33,11.95c3.38,4.75,9.94,5.67,15.32,4.7c4.81-0.76,9.16-4.61,9.71-9.57
			c0.68-6.98,0.31-14.01,0.38-21c-0.13-4.33,0.27-9.24-2.78-12.73C253.82,677.65,246.9,677.07,241.37,678.54z M456.75,685.5
			c-0.8,4.83-1.02,10.5,2.33,14.49c3.65,3.73,8.79,5.66,12.35,9.49c0.88,2.29,1.09,4.99,0.39,7.36c-0.43,1.66-3.45,1.87-3.81,0.11
			c-0.53-2.82-0.23-5.71-0.31-8.55c-3.71,0.01-7.41,0-11.11,0.02c0.1,4.08-0.3,8.48,1.64,12.24c2.71,4.15,8.1,5.42,12.77,5.26
			c4.25-0.16,9.18-1.53,11.44-5.46c1.73-4.81,1.48-10.29,0.09-15.16c-2.59-6.24-10-7.93-14.35-12.52c-0.84-2.16-1.44-5.65,0.83-7.11
			c3.8-0.43,2.06,4.84,2.49,7.05c3.71,0.04,7.42,0.03,11.13,0.02c-0.17-3.54,0.29-7.46-1.68-10.59c-3.39-3.94-9.11-4.6-13.99-4.2
			C462.55,678.25,457.58,680.74,456.75,685.5z M578.37,678.46c-5.17,1.17-8.92,6.14-8.76,11.43c-0.12,9.03-0.64,18.15,0.4,27.14
			c2.92,12.21,24.36,12,26.73-0.48c0.8-6.82,0.37-13.72,0.47-20.57c-0.2-4.58,0.47-9.8-2.71-13.58
			C590.71,677.73,583.86,677.11,578.37,678.46z M746.34,684.85c-0.98,4.87-1.26,10.59,1.87,14.79c3.61,3.93,8.85,5.88,12.57,9.71
			c0.98,2.21,1.07,4.81,0.59,7.17c-0.26,2-3.78,2.33-4.01,0.18c-0.4-2.75-0.19-5.54-0.23-8.29c-3.7-0.01-7.4,0-11.09-0.01
			c0.08,4.22-0.38,8.85,1.87,12.64c3.44,4.58,9.86,5.41,15.18,4.64c3.93-0.66,8.54-2.73,9.41-7.05c0.82-4.84,0.99-10.18-1.17-14.7
			c-3.2-5.02-9.26-6.9-13.45-10.8c-1.31-2.25-1.85-6.56,1.12-7.69c3.11,0.89,1.52,4.9,1.95,7.31c3.69,0,7.39,0,11.1,0
			c-0.18-3.65,0.37-7.79-1.9-10.91c-3.59-3.74-9.27-4.34-14.17-3.85C751.92,678.39,747.43,680.6,746.34,684.85z M140.02,678.78
			c-0.01,15.41,0,30.81,0,46.22c3.99,0,7.99,0,11.99,0c0.01-6.48,0-12.96,0.01-19.43c0.88-0.01,2.65-0.02,3.53-0.02
			c0.05,6.48,0.01,12.96,0.03,19.45c4,0,8,0.01,12-0.02c-0.04-15.4,0.03-30.8-0.03-46.2c-3.99,0-7.98-0.01-11.97,0.01
			c-0.03,5.49,0.02,10.99-0.02,16.48c-0.89,0-2.66-0.01-3.54-0.01c-0.02-5.49,0-10.99-0.01-16.47
			C148.01,678.77,144.02,678.78,140.02,678.78z M169.47,725c4.13,0,8.27,0,12.4-0.01c0.22-2.77,0.48-5.53,0.73-8.29
			c1.42,0,2.84,0,4.27,0.01c0.21,2.75,0.43,5.5,0.62,8.27c4.09,0.03,8.18,0.01,12.27,0.02c-2.27-15.41-4.55-30.81-6.84-46.22
			c-5.78-0.01-11.56,0-17.34,0C173.51,694.18,171.5,709.59,169.47,725z M201.67,678.79c-0.01,15.4-0.01,30.8,0,46.2
			c3.33,0.01,6.66,0.01,9.99,0.01c0.04-6.9-0.04-13.8,0.04-20.7c2.18,6.87,4.11,13.81,6.2,20.7c3.52,0,7.03,0,10.55,0
			c0-15.41,0.01-30.81,0-46.21c-3.33-0.02-6.66-0.02-9.99,0c-0.03,6.88,0.01,13.76-0.02,20.65c-2.3-6.86-4.47-13.77-6.71-20.65
			C208.38,678.77,205.02,678.77,201.67,678.79z M264.76,678.79c-0.01,15.4-0.01,30.8,0,46.2c4,0.01,8,0.01,12,0
			c-0.02-15.4,0-30.8-0.01-46.2C272.75,678.77,268.76,678.77,264.76,678.79z M291.53,678.79c0,10.42-0.03,20.84,0.02,31.26
			c0.13,3.77-0.29,8.03,2.27,11.16c3.7,4.46,10.18,5.32,15.59,4.39c5.12-0.74,9.43-5.35,9.38-10.59
			c0.29-12.07,0.06-24.15,0.13-36.22c-4-0.02-8-0.02-11.99,0c-0.02,11.41-0.01,22.82,0,34.23c-0.1,1.73,0.15,3.64-0.88,5.16
			c-2.72,0.53-2.47-2.33-2.52-4.16c-0.02-11.75,0.04-23.5-0.02-35.25C299.51,678.78,295.52,678.77,291.53,678.79z M323.4,724.98
			c3.33,0.02,6.67,0.02,10.01,0.01c0.02-6.96-0.02-13.91,0.02-20.87c2.03,6.9,4.22,13.76,6.05,20.72c3.56,0.32,7.14,0.1,10.71,0.15
			c0-15.4,0.01-30.8,0-46.2c-3.33-0.02-6.66-0.02-9.99,0c-0.03,6.83,0.04,13.66-0.05,20.5c-2.34-6.81-4.41-13.7-6.71-20.52
			c-3.34,0.01-6.68,0.01-10.01,0.01C323.37,694.18,323.43,709.58,323.4,724.98z M354.82,678.79c-0.02,15.4-0.01,30.8-0.01,46.2
			c4,0.01,8,0.01,12,0c-0.01-15.4,0.01-30.8,0-46.2C362.81,678.77,358.81,678.77,354.82,678.79z M368.81,678.79
			c2.31,15.4,4.63,30.81,6.97,46.21c6.05-0.01,12.11,0,18.17,0c2.05-15.41,4.11-30.81,6.12-46.21c-4.22-0.02-8.43-0.02-12.65,0
			c-1.11,10.55-1.84,21.14-2.97,31.68c-0.57-10.6-1.81-21.15-3-31.69C377.24,678.78,373.03,678.77,368.81,678.79z M401.89,678.79
			c-0.01,15.4,0,30.8,0,46.2c6.92,0.02,13.85,0,20.77,0.01c0.01-3.09,0.01-6.17,0-9.25c-2.93,0-5.85-0.01-8.77,0
			c-0.02-3.36,0.04-6.71-0.07-10.05c2.49-0.22,5-0.17,7.51-0.14c0.01-2.93,0-5.86,0-8.79c-2.48,0-4.97-0.03-7.44-0.01
			c-0.01-2.92-0.01-5.83,0-8.74c2.64,0,5.29-0.02,7.94-0.02c0-3.07,0-6.14,0-9.21C415.18,678.77,408.54,678.78,401.89,678.79z
			 M425.99,678.79c-0.01,15.4-0.01,30.8,0,46.21c4,0,7.99,0,11.99,0c0.06-7.01-0.11-14.02,0.1-21.02c1.35,0.3,3.41,0.45,3.37,2.33
			c0.47,6.21,0.08,12.45,0.21,18.68c3.7,0.01,7.41,0.01,11.12,0c-0.12-6.2,0.25-12.42-0.26-18.6c-0.39-2.89-3.07-4.56-5.61-5.41
			c2.08-0.62,4.67-1.36,5.21-3.78c0.91-3.71,0.86-7.67,0.06-11.39c-0.72-3.38-3.62-6.22-7.11-6.53
			C438.74,678.5,432.35,678.86,425.99,678.79z M487.21,678.79c-0.01,15.4,0,30.8-0.01,46.2c4,0.01,8,0.01,12,0.01
			c0.01-15.41,0.01-30.81,0-46.21C495.2,678.77,491.2,678.77,487.21,678.79z M501.87,678.79c-0.02,3.07-0.02,6.14,0,9.22
			c2.36-0.01,4.73,0.01,7.11,0.01c0.01,12.32-0.01,24.65,0.01,36.98c3.99,0,7.99,0,11.99,0c0-12.33-0.01-24.66,0.01-36.98
			c2.36,0,4.73-0.02,7.1-0.01c0.01-3.08,0.01-6.15,0-9.22C519.35,678.78,510.61,678.78,501.87,678.79z M529.39,678.79
			c2.33,8.21,4.69,16.42,7.05,24.64c2.55,6.9,0.92,14.38,1.38,21.56c3.7,0.01,7.41,0.01,11.11,0.01c0.12-5.68-0.23-11.37,0.16-17.02
			c2.7-9.77,5.75-19.45,8.56-29.2c-3.66-0.01-7.32,0-10.97,0c-1.28,5.96-2.41,11.95-3.33,17.97c-0.81-6.02-1.84-12.01-3-17.97
			C536.69,678.78,533.04,678.77,529.39,678.79z M601.43,724.97c4,0.05,8.01,0.02,12.02,0.03c0.01-6.49-0.02-12.96,0.01-19.44
			c2.47,0,4.95-0.01,7.42,0.01c0.02-2.94,0.02-5.88,0-8.81c-2.49,0.01-4.96,0-7.44-0.01c0.02-2.87,0.04-5.74-0.08-8.6
			c2.8-0.21,5.61-0.15,8.42-0.14c0-3.08,0-6.15,0-9.22c-6.73-0.07-13.47,0.09-20.2-0.09C601.26,694.11,601.56,709.54,601.43,724.97z
			 M634.77,678.79c-0.02,15.4-0.01,30.8-0.01,46.2c4,0.01,8,0.01,12,0c-0.01-15.4,0-30.8,0-46.2
			C642.76,678.77,638.76,678.77,634.77,678.79z M651.46,724.98c3.33,0.02,6.67,0.02,10.01,0.02c0.02-6.94-0.02-13.88,0.02-20.81
			c2.08,6.87,4.2,13.73,6.07,20.67c3.56,0.28,7.13,0.09,10.7,0.13c0-15.4,0.01-30.8,0-46.2c-3.34-0.02-6.67-0.02-10,0
			c-0.02,6.83,0.03,13.66-0.03,20.49c-2.38-6.8-4.41-13.71-6.75-20.52c-3.33,0.03-6.66,0.02-9.98,0.02
			C651.43,694.18,651.5,709.58,651.46,724.98z M682.88,678.79c-0.01,15.4-0.01,30.8,0,46.2c6.06-0.03,12.12,0.1,18.18-0.07
			c2.8-0.12,6.01-0.61,7.86-2.97c1.86-2.57,1.55-5.95,1.72-8.94c-0.05-8.35,0.22-16.71-0.19-25.05c0.04-3.97-2.89-7.61-6.79-8.35
			C696.82,678.31,689.8,678.94,682.88,678.79z M714.77,678.79c0.04,11.73-0.14,23.47,0.11,35.2c-0.09,3.42,1.19,7.02,4.07,9.06
			c4.18,2.99,9.75,3.47,14.65,2.33c4.71-1.06,8.47-5.48,8.42-10.37c0.3-12.07,0.06-24.15,0.13-36.22c-4-0.02-8-0.02-11.99,0
			c-0.02,11.75,0.02,23.5-0.02,35.26c-0.19,1.49,0.34,4.27-1.98,4.13c-1.84-0.38-1.13-2.87-1.39-4.2c-0.01-11.73,0-23.46,0-35.19
			C722.76,678.77,718.76,678.77,714.77,678.79z M774.59,678.79c-0.02,3.07-0.02,6.14,0,9.22c2.36-0.02,4.74,0.01,7.12,0.02
			c-0.02,12.32-0.01,24.64-0.01,36.97c4,0,8,0.01,12-0.01c-0.01-12.33-0.01-24.65,0-36.97c2.36,0,4.73-0.02,7.11-0.02
			c0-3.07,0-6.15,0-9.21C792.07,678.78,783.33,678.78,774.59,678.79z M803.36,724.98c4,0.03,8.01,0.02,12.01,0.02
			c0.03-7-0.05-13.99,0.05-20.99c1.21,0.36,3.26,0.23,3.36,1.97c0.59,6.31,0.12,12.68,0.27,19.02c3.7,0,7.4,0,11.11-0.01
			c-0.07-6.02,0.19-12.05-0.18-18.07c-0.12-2.93-2.68-4.87-5.21-5.81c1.67-0.98,3.99-1.47,4.62-3.56c1.06-3.73,0.96-7.75,0.24-11.52
			c-0.66-3.27-3.27-6.17-6.63-6.66c-6.47-0.94-13.03-0.42-19.54-0.64C803.25,694.15,803.44,709.57,803.36,724.98z M831.9,678.79
			c2.71,9.77,5.68,19.47,8.29,29.26c0.33,5.63,0.04,11.29,0.13,16.93c3.7,0.03,7.4,0.02,11.12,0.02c0.45-7.33-1.22-14.97,1.55-21.98
			c2.38-8.08,4.79-16.15,7.16-24.23c-3.66-0.02-7.32-0.02-10.97,0c-1.28,5.94-2.37,11.92-3.34,17.92
			c-0.79-6.01-1.84-11.98-2.98-17.92C839.2,678.77,835.55,678.77,831.9,678.79z M140.84,747.22c-0.02,52.26-0.02,104.51,0,156.76
			c59.62-27.2,121.82-48.3,184.67-66.62c76.87-22.25,154.97-40.04,233.6-54.75c66.2-12.25,132.82-22.42,199.8-29.26
			c29.68-2.84,59.43-5.57,89.27-5.8c-31.71-0.73-63.45-0.14-95.17-0.33C548.96,747.22,344.9,747.21,140.84,747.22z"/>
	</g>
	<path fill="#FFDB5C" d="M404.69,157.76c7.44,8.67,14.8,17.4,22.23,26.08c10.54-4.38,21.07-8.8,31.63-13.16
		c-5.94,9.76-11.97,19.46-17.93,29.2c7.41,8.7,14.89,17.35,22.31,26.04c-11.2-2.55-22.28-5.67-33.54-7.91
		c-5.75,9.78-11.76,19.41-17.68,29.09c-0.9-11.38-1.74-22.77-2.63-34.15c-11.02-2.74-22.14-5.1-33.11-8.01
		c10.44-4.43,20.97-8.66,31.45-13.02C406.53,180.53,405.56,169.15,404.69,157.76z"/>
	<path fill="#FFDB5C" d="M467.57,333.74c2.59-1.4,5.53-2.25,8.49-1.7c7.29,1.15,13.44,5.68,19.01,10.25
		c-3.89,4.04-7.62,8.24-10.96,12.75c-0.89,1-1.65,2.45-3.19,2.42c-6.02,0.79-12,1.82-17.88,3.34c-0.22-1.31-0.43-2.6-0.63-3.89
		c3.03-1.17,5.9-3.05,7.59-5.91C473.51,345.6,472.25,338.04,467.57,333.74z"/>
	<path fill="#FFDB5C" d="M504.94,342.34c5.77-4.83,12.31-9.61,20.02-10.4c4.81-0.61,9.54,2.44,11.26,6.92
		c2.78,6.96,2.08,14.77,0.65,21.97c-6.23-1.81-12.68-2.56-19.05-3.63C513.56,352.24,509.66,346.91,504.94,342.34z"/>
	<path fill="#FFDB5C" d="M491.26,356.6c2.87-3.27,5.65-6.62,8.74-9.69c3.08,3.07,5.86,6.42,8.73,9.7
		C502.91,356.27,497.08,356.27,491.26,356.6z"/>
	<path fill="#FFDB5C" d="M485.97,363.81c9.3-0.97,18.71-0.93,28.02-0.04c5.29,7.63,10,15.68,13.88,24.12
		c-3.97,8.41-8.6,16.51-13.96,24.11c-9.25,0.79-18.57,0.78-27.82,0c-5.37-7.58-9.96-15.69-13.96-24.06
		C475.95,379.47,480.72,371.46,485.97,363.81z"/>
	<path fill="#FFDB5C" d="M464.53,367.42c4.18-1.18,8.47-1.95,12.75-2.7c-3.19,4.85-6.13,9.88-8.69,15.1
		C467.16,375.71,465.71,371.61,464.53,367.42z"/>
	<path fill="#FFDB5C" d="M522.73,364.72c4.26,0.73,8.51,1.57,12.71,2.64c-1.1,4.23-2.61,8.33-4.03,12.46
		C528.85,374.6,525.91,369.58,522.73,364.72z"/>
	<path fill="#FFDB5C" d="M439.28,381.25c4.57-6.11,11.85-9.3,18.8-11.89c1.75,6.34,4.1,12.48,6.6,18.56
		c-2.6,5.99-4.81,12.14-6.6,18.42c-7.08-2.66-14.58-5.91-19.07-12.29C436.26,390.29,436.43,384.9,439.28,381.25z"/>
	<path fill="#FFDB5C" d="M535.32,387.92c2.5-6.07,4.82-12.23,6.61-18.55c1.21,0.46,2.43,0.92,3.66,1.39c-0.6,3.65-0.17,7.59,2,10.67
		c3.24,5.06,9.88,7.11,15.55,5.4c-0.21,2.73-0.74,5.53-2.5,7.73c-4.57,6.04-11.81,9.19-18.71,11.78
		C540.12,400.06,537.91,393.91,535.32,387.92z"/>
	<path fill="#FFDB5C" d="M468.58,395.96c2.61,5.15,5.52,10.14,8.64,15.01c-4.26-0.72-8.5-1.56-12.67-2.65
		C465.68,404.13,467.12,400.04,468.58,395.96z"/>
	<path fill="#FFDB5C" d="M531.42,395.96c1.46,4.07,2.89,8.17,4.03,12.36c-4.18,1.09-8.41,1.93-12.67,2.64
		C525.89,406.1,528.81,401.11,531.42,395.96z"/>
	<path fill="#FFDB5C" d="M463.02,414.91c6.33,1.75,12.88,2.45,19.3,3.71c4.18,4.99,8.13,10.2,12.76,14.82
		c-1.01,0.78-2.02,1.57-3.04,2.34l-0.79-0.49c-5-4.1-12.85-4.04-17.61,0.41c-2.23,1.88-3.46,4.6-4.33,7.33
		c-2.23-1.53-4.38-3.34-5.4-5.92C460.9,430.11,461.82,422.22,463.02,414.91z"/>
	<path fill="#FFDB5C" d="M517.69,418.57c6.43-1.14,12.95-1.93,19.28-3.66c1.22,7.27,2.11,15.12-0.83,22.1
		c-1.75,4.4-6.44,7.33-11.17,6.76c-7.71-0.76-14.16-5.62-20.02-10.29C509.49,428.76,513.57,423.64,517.69,418.57z"/>
	<path fill="#FFDB5C" d="M491.35,419.13c5.76,0.28,11.53,0.28,17.3,0c-2.78,3.31-5.59,6.59-8.65,9.64
		C496.93,425.72,494.13,422.43,491.35,419.13z"/>
	<path fill="#FFDB5C" d="M245.31,686.13c1.55-1.4,3.53,0.06,3.11,2c0.24,6.26,0.03,12.53,0.1,18.8c-0.21,3.57,0.54,7.38-0.69,10.81
		c-3.17,1.86-3.22-2.66-3.09-4.7C245.08,704.09,244.03,694.98,245.31,686.13z"/>
	<path fill="#FFDB5C" d="M582.16,686.07l0.81-0.48c0.43,0.11,1.29,0.32,1.72,0.42c1,4.25,0.33,8.68,0.53,13.01
		c-0.18,5.97,0.38,12-0.36,17.94c-0.17,1.77-3.44,1.56-3.22-0.39c-0.47-8.16-0.07-16.35-0.22-24.53
		C581.59,690.06,581.09,687.83,582.16,686.07z"/>
	<path fill="#FFDB5C" d="M815.41,686.54c1.12,0.38,2.85,0.16,3.31,1.55c0.55,2.49,0.5,5.18-0.05,7.68
		c-0.45,1.31-2.23,0.93-3.27,1.35C815.36,693.59,815.35,690.06,815.41,686.54z"/>
	<path fill="#FFDB5C" d="M438.02,686.55c1.49,0.22,3.63,0.52,3.55,2.52c0.13,3.01,1.15,8.47-3.54,8.06
		C437.96,693.6,437.96,690.08,438.02,686.55z"/>
	<path fill="#FFDB5C" d="M694.9,686.56c1.54,0.13,3.83,0.42,3.64,2.53c0.14,8.5,0.32,17.04-0.11,25.53
		c0.15,2.02-2.01,2.41-3.53,2.61C694.87,707,694.87,696.78,694.9,686.56z"/>
	<path fill="#FFDB5C" d="M182.44,708.51c0.57-6.4,1.45-12.77,2.2-19.15c0.74,6.37,1.14,12.78,1.88,19.15
		C185.5,708.51,183.46,708.51,182.44,708.51z"/>
</g>
<g>
	<g>
		<path fill="#FF0000" d="M454.89,101.23c14.29-2.25,28.76-3.37,43.23-3.49c0.02,58.74,0,117.49,0,176.23
			c-28.76,0.39-57.05,12.18-77.71,32.18c-41.5-41.5-82.93-83.08-124.53-124.48C338.56,138.93,395.2,110.42,454.89,101.23z
			 M404.69,157.76c0.87,11.39,1.84,22.77,2.73,34.16c-10.48,4.36-21.01,8.59-31.45,13.02c10.97,2.91,22.09,5.27,33.11,8.01
			c0.89,11.38,1.73,22.77,2.63,34.15c5.92-9.68,11.93-19.31,17.68-29.09c11.26,2.24,22.34,5.36,33.54,7.91
			c-7.42-8.69-14.9-17.34-22.31-26.04c5.96-9.74,11.99-19.44,17.93-29.2c-10.56,4.36-21.09,8.78-31.63,13.16
			C419.49,175.16,412.13,166.43,404.69,157.76z"/>
	</g>
	<path fill="#FF0000" d="M501.88,176.51c54.31,0.15,108.02,22.51,146.6,60.7c-4.41,4.43-8.83,8.85-13.26,13.26
		c-35.13-34.7-83.95-54.99-133.34-55.23C501.86,188.99,501.86,182.75,501.88,176.51z"/>
	<path fill="#FF0000" d="M244.72,274.69c13.64-30.6,32.87-58.69,56.41-82.53c36.25,36.21,72.47,72.46,108.7,108.69
		c-22.11,22.7-35.11,53.94-35.47,85.64c-51.24-0.01-102.48,0.01-153.72-0.01C220.86,348.09,229.05,309.75,244.72,274.69z"/>
	<path fill="#FF0000" d="M629.94,261.09c9.7-9.73,19.42-19.45,29.15-29.16c23.13,23.49,40.99,52.14,51.77,83.3
		c7.94,22.87,12.06,47.05,12.24,71.25c-13.74,0.01-27.48,0.02-41.23,0C681.61,340.03,662.54,294.14,629.94,261.09z"/>
	<path fill="#FF0000" d="M445.19,341.91c0.82-6.59,7.06-11.75,13.67-11.59c3.18,0.21,6.22,1.41,8.71,3.42
		c4.68,4.3,5.94,11.86,2.43,17.26c-1.69,2.86-4.56,4.74-7.59,5.91c-2.28,0.47-4.62,0.56-6.91,0.18
		C448.86,355.58,444.01,348.68,445.19,341.91z"/>
	<path fill="#FF0000" d="M548.91,364.68c4.69-5.1,13.33-5.71,18.56-1.1c5.09,4.07,6.27,11.88,2.91,17.41
		c-1.74,2.66-4.33,4.62-7.24,5.84c-5.67,1.71-12.31-0.34-15.55-5.4c-2.17-3.08-2.6-7.02-2-10.67
		C546.35,368.57,547.36,366.43,548.91,364.68z"/>
	<path fill="#FF0000" d="M231.89,390.22c43.75-0.01,87.49,0.01,131.23,0.02c0.34,34.64,14.53,68.82,38.77,93.57
		c-30.93,30.94-61.86,61.87-92.8,92.81c-22.64-22.97-41.15-50.01-54.23-79.49C239.92,463.59,232.11,426.93,231.89,390.22z"/>
	<path fill="#FF0000" d="M670.59,390.27c21.25-0.1,42.51,0,63.76-0.05c-0.22,38.18-9.97,76.27-28.25,109.81
		c-10.46,19.28-23.66,37.07-39.05,52.71c-15.01-15.06-30.15-29.99-45.05-45.16C652.53,476.7,670.35,433.7,670.59,390.27z"/>
	<path fill="#FF0000" d="M473.64,435.7c4.76-4.45,12.61-4.51,17.61-0.41c2,1.75,3.47,4,4.34,6.51c2.18,6.76-1.9,14.67-8.69,16.76
		c-6.04,2.14-13.09-0.81-16.17-6.34c-1.41-2.86-1.81-6.06-1.42-9.19C470.18,440.3,471.41,437.58,473.64,435.7z"/>
	<path fill="#FF0000" d="M319.73,571.23c25.68-25.55,51.21-51.25,76.9-76.79c26.78,26.32,63.9,41.73,101.47,42.04
		c0.05,36.24,0.03,72.49,0.02,108.73C432.03,645.07,366.47,617.98,319.73,571.23z"/>
	<path fill="#FF0000" d="M501.88,547.74c40.54-0.31,80.57-16.94,109.47-45.35c20.35,20.31,40.69,40.63,60.99,61
		c-25.01,24.59-55.27,43.83-88.24,55.81c-26.29,9.6-54.25,14.57-82.23,14.77C501.87,605.22,501.87,576.48,501.88,547.74z"/>
	<path fill="#FF0000" d="M140.84,747.22c204.06-0.01,408.12,0,612.17,0c31.72,0.19,63.46-0.4,95.17,0.33
		c-29.84,0.23-59.59,2.96-89.27,5.8c-66.98,6.84-133.6,17.01-199.8,29.26c-78.63,14.71-156.73,32.5-233.6,54.75
		c-62.85,18.32-125.05,39.42-184.67,66.62C140.82,851.73,140.82,799.48,140.84,747.22z"/>
</g>
</svg>
